Coordinates
version=1
nRows=18
nColumns=22
inDegrees=yes

Units are S.I. units (second, meters, Newtons, ...)
If the header above contains a line with 'inDegrees', this indicates whether rotational values are in degrees (yes) or radians (no).

endheader
time	pelvis_tilt	pelvis_list	pelvis_rotation	pelvis_tx	pelvis_ty	pelvis_tz	hip_flexion_r	hip_adduction_r	hip_rotation_r	knee_angle_r	ankle_angle_r	subtalar_angle_r	hip_flexion_l	hip_adduction_l	hip_rotation_l	knee_angle_l	ankle_angle_l	subtalar_angle_l	lumbar_extension	lumbar_bending	lumbar_rotation
      3.79000000	      2.89611771	     -1.22316227	    -91.85640962	      0.39874688	      1.00793511	      0.81845346	      2.00224967	    -11.62935531	     -6.10363004	    -52.19291529	     -3.01810367	      2.49537774	     12.43097851	      0.58643423	     -3.26117538	    -16.86820879	      3.68753448	      1.86643261	     -1.20810140	     -5.91630906	      2.84161689
      3.80000000	      2.84989951	     -1.21821819	    -92.36138512	      0.40129575	      1.00879546	      0.82375141	      3.21836385	    -11.71027280	     -6.03289055	    -53.04772885	     -1.66365894	      1.96769549	     12.07682453	      0.67395318	     -3.68302327	    -16.88295695	      3.95070779	      1.58658407	     -1.43037130	     -5.88973181	      2.62609789
      3.81000000	      2.73258757	     -1.18615392	    -92.84591345	      0.40365452	      1.00965423	      0.82881574	      4.41203917	    -11.61801620	     -5.91895050	    -53.65122537	     -0.32680448	      1.43617991	     11.74713570	      0.68241353	     -4.04434880	    -16.86386547	      4.18353244	      1.28927380	     -1.63090008	     -5.78950966	      2.39683121
      3.82000000	      2.57496391	     -1.16444096	    -93.30812497	      0.40585150	      1.01054573	      0.83369616	      5.53187736	    -11.41457128	     -5.81429073	    -54.00681843	      0.96393259	      1.02786626	     11.41080453	      0.63842855	     -4.44355323	    -16.83405630	      4.42548132	      1.04705439	     -1.85005883	     -5.64965745	      2.13575548
      3.83000000	      2.37181013	     -1.10428012	    -93.74625952	      0.40791759	      1.01141635	      0.83838008	      6.62443401	    -11.09970667	     -5.73091227	    -54.12055336	      2.18533158	      0.68229632	     11.09271137	      0.54609211	     -4.77827505	    -16.74127058	      4.61273643	      0.80164191	     -2.03476845	     -5.45923894	      1.87653268
      3.84000000	      2.15348574	     -1.05689819	    -94.14160548	      0.40990077	      1.01229720	      0.84287941	      7.63018154	    -10.73636242	     -5.71559768	    -54.01266059	      3.34016564	      0.46952370	     10.76940346	      0.43539584	     -5.11630132	    -16.64511959	      4.80212642	      0.60640590	     -2.24519465	     -5.25489894	      1.57291342
      3.85000000	      1.92035993	     -0.97578667	    -94.50069366	      0.41181404	      1.01313786	      0.84724468	      8.59176767	    -10.33784877	     -5.78476676	    -53.68590310	      4.42280425	      0.34920504	     10.46217373	      0.30758116	     -5.42561747	    -16.49543185	      4.95380132	      0.40837796	     -2.41359409	     -5.03143145	      1.26067234
      3.86000000	      1.69344405	     -0.89279895	    -94.80744331	      0.41370036	      1.01396516	      0.85146299	      9.47268166	     -9.94111860	     -5.94834123	    -53.15535157	      5.45302778	      0.32761146	     10.14903016	      0.19024573	     -5.69039227	    -16.30881475	      5.07140601	      0.24632112	     -2.57807616	     -4.81303868	      0.91024320
      3.87000000	      1.49064021	     -0.80477931	    -95.06820257	      0.41557142	      1.01477608	      0.85556553	     10.27773352	     -9.57638608	     -6.20678294	    -52.43473634	      6.43292932	      0.34264796	      9.81917583	      0.10367773	     -5.91445351	    -16.05489620	      5.11266661	      0.15699427	     -2.72756401	     -4.62082588	      0.56227504
      3.88000000	      1.25291441	     -0.68717574	    -95.26945456	      0.41742529	      1.01551603	      0.85954129	     11.01731126	     -9.16687968	     -6.53307988	    -51.52146653	      7.32494652	      0.55668747	      9.53383601	     -0.02454306	     -6.11882790	    -15.81312114	      5.23362762	     -0.04438135	     -2.83725771	     -4.38099084	      0.16798377
      3.89000000	      1.05383838	     -0.57739299	    -95.43151345	      0.41924647	      1.01624740	      0.86341638	     11.66987868	     -8.80041237	     -6.89970810	    -50.44438986	      8.16829760	      0.79221204	      9.21666062	     -0.10633521	     -6.28457205	    -15.50012324	      5.27334417	     -0.17507098	     -2.94073653	     -4.18654615	     -0.21779122
      3.90000000	      0.86237362	     -0.46347064	    -95.55997031	      0.42100491	      1.01694298	      0.86717340	     12.24733357	     -8.43217485	     -7.27259001	    -49.21563875	      8.94339266	      1.05581115	      8.89328387	     -0.18165784	     -6.43744438	    -15.14512470	      5.30297507	     -0.27657971	     -3.02973789	     -4.00266959	     -0.59596688
      3.91000000	      0.67190401	     -0.34438473	    -95.65681912	      0.42268061	      1.01759823	      0.87080762	     12.74958922	     -8.04557907	     -7.61384873	    -47.84655593	      9.65633896	      1.36243473	      8.56725421	     -0.25985326	     -6.58252792	    -14.75408949	      5.33467108	     -0.36826085	     -3.10728681	     -3.82372761	     -0.97246653
      3.92000000	      0.48593896	     -0.21673382	    -95.74118463	      0.42425887	      1.01821374	      0.87432547	     13.18706565	     -7.64290839	     -7.89255294	    -46.35420102	     10.30324159	      1.75691194	      8.23196108	     -0.33628960	     -6.71567978	    -14.30973072	      5.32581790	     -0.45919779	     -3.16638495	     -3.65536413	     -1.29474121
      3.93000000	      0.28989633	     -0.07755017	    -95.80083512	      0.42572756	      1.01876347	      0.87770746	     13.56005814	     -7.19978464	     -8.08706499	    -44.75395378	     10.88833572	      2.13013239	      7.91422199	     -0.43283842	     -6.86433518	    -13.85900878	      5.36278569	     -0.53627780	     -3.21125331	     -3.48276570	     -1.61529739
      3.94000000	      0.09601345	      0.07186884	    -95.85725613	      0.42709287	      1.01925440	      0.88096401	     13.87830260	     -6.73044310	     -8.15782513	    -43.07096138	     11.41215707	      2.55016568	      7.59846132	     -0.53231951	     -7.01170090	    -13.37593538	      5.38036061	     -0.61061272	     -3.23866867	     -3.31584456	     -1.89186208
      3.95000000	     -0.09607524	      0.23072421	    -95.91117892	      0.42836021	      1.01967759	      0.88410709	     14.14543789	     -6.24006016	     -8.10064326	    -41.33141555	     11.87402943	      2.98689366	      7.28921177	     -0.63548666	     -7.16039289	    -12.87316662	      5.40048833	     -0.68151342	     -3.24749738	     -3.15406335	     -2.12378331
      3.96000000	     -0.28084800	      0.38966419	    -95.95892464	      0.42955785	      1.02003944	      0.88716032	     14.35729038	     -5.74748710	     -7.92488770	    -39.56578278	     12.26943778	      3.44885706	      6.97493587	     -0.73276364	     -7.30997473	    -12.34760105	      5.43721492	     -0.75188446	     -3.24479021	     -3.00185572	     -2.31214370
